<mxfile host="Electron" modified="2023-07-06T05:30:14.924Z" agent="Mozilla/5.0 (Windows NT 10.0; Win64; x64) AppleWebKit/537.36 (KHTML, like Gecko) draw.io/21.5.0 Chrome/112.0.5615.204 Electron/24.5.1 Safari/537.36" etag="Ub7t9bAV_i6IV6T1TvGU" version="21.5.0" type="device">
  <diagram name="第 1 页" id="otjA5uBS9OqRL6xHw9S9">
    <mxGraphModel dx="810" dy="469" grid="1" gridSize="10" guides="1" tooltips="1" connect="1" arrows="1" fold="1" page="1" pageScale="1" pageWidth="827" pageHeight="1169" math="0" shadow="0">
      <root>
        <mxCell id="0" />
        <mxCell id="1" parent="0" />
        <mxCell id="MWOOYPoP0CNrA04uUIKl-7" value="" style="edgeStyle=orthogonalEdgeStyle;rounded=0;orthogonalLoop=1;jettySize=auto;html=1;strokeColor=#FF6392;fontColor=#5AA9E6;fillColor=#FFE45E;" edge="1" parent="1" source="MWOOYPoP0CNrA04uUIKl-2" target="MWOOYPoP0CNrA04uUIKl-5">
          <mxGeometry relative="1" as="geometry" />
        </mxCell>
        <mxCell id="MWOOYPoP0CNrA04uUIKl-8" value="" style="edgeStyle=orthogonalEdgeStyle;rounded=0;orthogonalLoop=1;jettySize=auto;html=1;strokeColor=#FF6392;fontColor=#5AA9E6;fillColor=#FFE45E;" edge="1" parent="1" source="MWOOYPoP0CNrA04uUIKl-2" target="MWOOYPoP0CNrA04uUIKl-5">
          <mxGeometry relative="1" as="geometry" />
        </mxCell>
        <mxCell id="MWOOYPoP0CNrA04uUIKl-12" value="" style="edgeStyle=orthogonalEdgeStyle;rounded=0;orthogonalLoop=1;jettySize=auto;html=1;strokeColor=#FF6392;fontColor=#5AA9E6;fillColor=#FFE45E;" edge="1" parent="1" source="MWOOYPoP0CNrA04uUIKl-2" target="MWOOYPoP0CNrA04uUIKl-11">
          <mxGeometry relative="1" as="geometry">
            <Array as="points">
              <mxPoint x="380" y="170" />
              <mxPoint x="660" y="170" />
            </Array>
          </mxGeometry>
        </mxCell>
        <mxCell id="MWOOYPoP0CNrA04uUIKl-2" value="should do/do&lt;br&gt;表示形式为should+动词原形或直接用动词原形" style="rounded=0;whiteSpace=wrap;html=1;strokeColor=#FF6392;fontColor=#5AA9E6;fillColor=#FFE45E;" vertex="1" parent="1">
          <mxGeometry x="310" y="60" width="140" height="60" as="geometry" />
        </mxCell>
        <mxCell id="MWOOYPoP0CNrA04uUIKl-5" value="it is(was)+形容词（或过去分词）+that结构中的主语从句" style="rounded=0;whiteSpace=wrap;html=1;strokeColor=#FF6392;fontColor=#5AA9E6;fillColor=#FFE45E;" vertex="1" parent="1">
          <mxGeometry x="280" y="200" width="200" height="60" as="geometry" />
        </mxCell>
        <mxCell id="MWOOYPoP0CNrA04uUIKl-11" value="表语从句或同位语从句" style="rounded=0;whiteSpace=wrap;html=1;strokeColor=#FF6392;fontColor=#5AA9E6;fillColor=#FFE45E;" vertex="1" parent="1">
          <mxGeometry x="600" y="200" width="120" height="60" as="geometry" />
        </mxCell>
        <mxCell id="MWOOYPoP0CNrA04uUIKl-13" value="" style="edgeStyle=orthogonalEdgeStyle;rounded=0;orthogonalLoop=1;jettySize=auto;html=1;strokeColor=#FF6392;fontColor=#5AA9E6;fillColor=#FFE45E;" edge="1" parent="1" target="MWOOYPoP0CNrA04uUIKl-3">
          <mxGeometry relative="1" as="geometry">
            <mxPoint x="390" y="120" as="sourcePoint" />
            <mxPoint x="100" y="230" as="targetPoint" />
            <Array as="points">
              <mxPoint x="380" y="120" />
              <mxPoint x="380" y="170" />
              <mxPoint x="80" y="170" />
            </Array>
          </mxGeometry>
        </mxCell>
        <mxCell id="MWOOYPoP0CNrA04uUIKl-3" value="在表示建议，命令，要求，忠告等动词后的宾语从句" style="rounded=0;whiteSpace=wrap;html=1;strokeColor=#FF6392;fontColor=#5AA9E6;fillColor=#FFE45E;" vertex="1" parent="1">
          <mxGeometry y="200" width="160" height="60" as="geometry" />
        </mxCell>
      </root>
    </mxGraphModel>
  </diagram>
</mxfile>
